<svg width="181" height="181" viewBox="0 0 181 181" fill="none" xmlns="http://www.w3.org/2000/svg">
<circle cx="90.6607" cy="84.5533" r="56.4107" fill="#F1F3FF"/>
<circle cx="37.7857" cy="46.4654" r="3.53571" fill="#F1F3FF"/>
<circle cx="110.268" cy="21.5541" r="6.58929" fill="#F1F3FF"/>
<circle cx="43.0896" cy="129.555" r="6.26786" fill="#F1F3FF"/>
<circle cx="151.09" cy="114.768" r="6.26786" fill="#F1F3FF"/>
<circle cx="138.875" cy="121.841" r="3.05357" fill="#F1F3FF"/>
<path d="M93.8835 30.8875C93.6971 30.8478 93.6971 30.5819 93.8835 30.5422L96.701 29.9431C96.7689 29.9286 96.8221 29.8757 96.8368 29.8079L97.4434 27.0102C97.4836 26.8247 97.7481 26.8247 97.7884 27.0102L98.395 29.8079C98.4097 29.8757 98.4629 29.9286 98.5308 29.9431L101.348 30.5422C101.535 30.5819 101.535 30.8478 101.348 30.8875L98.5308 31.4866C98.4629 31.5011 98.4097 31.554 98.395 31.6218L97.7884 34.4195C97.7481 34.6049 97.4836 34.6049 97.4434 34.4195L96.8368 31.6218C96.8221 31.554 96.7689 31.5011 96.701 31.4866L93.8835 30.8875Z" fill="#C4CBF5"/>
<path d="M29.5003 88.4505C29.5722 88.1106 30.0573 88.1106 30.1292 88.4505L31.2037 93.5266C31.2299 93.6504 31.3262 93.7472 31.4497 93.7741L36.4735 94.8686C36.8108 94.9421 36.8108 95.4232 36.4735 95.4967L31.4497 96.5911C31.3262 96.618 31.2299 96.7149 31.2037 96.8386L30.1292 101.915C30.0573 102.255 29.5722 102.255 29.5003 101.915L28.4258 96.8386C28.3996 96.7149 28.3033 96.618 28.1798 96.5911L23.156 95.4967C22.8187 95.4232 22.8187 94.9421 23.156 94.8686L28.1798 93.7741C28.3033 93.7472 28.3996 93.6504 28.4258 93.5266L29.5003 88.4505Z" fill="#C4CBF5"/>
<path d="M141.075 47.9505C141.147 47.6106 141.632 47.6106 141.704 47.9505L142.331 50.9118C142.357 51.0355 142.454 51.1324 142.577 51.1593L145.516 51.7996C145.854 51.8731 145.854 52.3542 145.516 52.4277L142.577 53.068C142.454 53.0949 142.357 53.1918 142.331 53.3155L141.704 56.2768C141.632 56.6167 141.147 56.6167 141.075 56.2768L140.449 53.3155C140.422 53.1918 140.326 53.0949 140.203 53.068L137.263 52.4277C136.926 52.3542 136.926 51.8731 137.263 51.7996L140.203 51.1593C140.326 51.1324 140.422 51.0355 140.449 50.9118L141.075 47.9505Z" fill="#C4CBF5"/>
<path d="M154.033 95.4277L155.017 100.078L159.601 101.077L155.017 102.075L154.033 106.725L153.049 102.075L148.465 101.077L153.049 100.078L154.033 95.4277Z" fill="white"/>
<path d="M122.643 59L46.625 88.0893L62.8571 133.25L72.6607 137.589L84.875 140.161L97.25 139.679L104.482 138.393L110.911 136.464L121.518 131L130.518 123.929L131.213 123.03C135.135 117.96 138.613 112.561 141.607 106.893L122.643 59Z" fill="#F1F3FF"/>
<path d="M52.4107 75.2302L44.375 70.7302L114.125 44.373L110.429 53.5338L113.161 62.0516L55.4643 84.0695L52.4107 75.2302Z" fill="#DDE2FF"/>
<path d="M62.5356 133.088V133.088C69.5691 136.684 77.1836 139.006 85.0268 139.947L85.2227 139.971L90.8147 139.971C95.0034 139.971 99.1802 139.525 103.275 138.641L104.661 138.342C109.038 137.397 113.265 135.853 117.222 133.755V133.755C120.309 132.118 123.211 130.154 125.878 127.897L126.744 127.164C129.059 125.205 131.207 123.057 133.166 120.742V120.742C135.909 117.501 138.265 113.951 140.186 110.165L141.929 106.73" stroke="#C4CBF5" stroke-width="1.28571"/>
<path d="M46.0083 87.418L62.8571 133.399" stroke="#C4CBF5" stroke-width="1.28571"/>
<path d="M123.312 58.9727L141.796 107.27" stroke="#C4CBF5" stroke-width="1.28571"/>
<path d="M43.1157 70.8647L115.114 43.8107" stroke="#C4CBF5" stroke-width="1.28571"/>
<path d="M45.6361 88.2467L122.299 58.6817L110.998 53.4331C110.673 53.2824 110.534 52.8957 110.688 52.5728L114.624 44.3373" stroke="#C4CBF5" stroke-width="1.28571"/>
<path d="M43.7615 70.6426L51.8655 74.9875C52.1736 75.1526 52.2932 75.5337 52.1348 75.8453L46.0084 87.9003" stroke="#C4CBF5" stroke-width="1.28571"/>
<path d="M43.437 70.0605L48.6588 83.1131" stroke="#C4CBF5" stroke-width="1.28571"/>
<path d="M52.25 75.7129L55.4643 84.7129" stroke="#C4CBF5" stroke-width="1.28571"/>
<path d="M110.75 53.2129L113.964 62.5343" stroke="#C4CBF5" stroke-width="1.28571"/>
<path d="M114.681 44.4883L119.294 57.2047" stroke="#C4CBF5" stroke-width="1.28571"/>
<circle cx="76.1963" cy="83.9102" r="3.375" fill="#DDE2FF"/>
<circle cx="71.3751" cy="66.5533" r="2.41071" fill="#F1F3FF"/>
<circle cx="97.4106" cy="75.873" r="3.375" fill="#DDE2FF"/>
<circle cx="86.1607" cy="61.0884" r="2.41071" fill="#F1F3FF"/>
</svg>
