<svg width="19" height="18" viewBox="0 0 19 18" fill="none" xmlns="http://www.w3.org/2000/svg">
<path d="M1.49023 1H1.72876C2.1499 1 2.36084 1 2.53261 1.07598C2.68405 1.14297 2.81353 1.25082 2.9069 1.38759C3.01263 1.54245 3.05081 1.74924 3.12701 2.16202L5.04582 12.5556L14.3096 12.5556C14.7125 12.5556 14.9145 12.5556 15.0814 12.4844C15.2288 12.4215 15.3559 12.3197 15.4503 12.1902C15.5571 12.0437 15.6023 11.8477 15.6927 11.4561L15.6934 11.4533L17.0882 5.40885L17.0885 5.40759C17.2256 4.81347 17.2943 4.51569 17.2189 4.28212C17.1527 4.07717 17.0133 3.90342 16.8285 3.79282C16.6177 3.66667 16.3132 3.66667 15.7024 3.66667H3.71246M14.8236 17C14.3326 17 13.9347 16.602 13.9347 16.1111C13.9347 15.6202 14.3326 15.2222 14.8236 15.2222C15.3145 15.2222 15.7125 15.6202 15.7125 16.1111C15.7125 16.602 15.3145 17 14.8236 17ZM5.93468 17C5.44376 17 5.04579 16.602 5.04579 16.1111C5.04579 15.6202 5.44376 15.2222 5.93468 15.2222C6.4256 15.2222 6.82357 15.6202 6.82357 16.1111C6.82357 16.602 6.4256 17 5.93468 17Z" stroke="#313131" stroke-width="1.6" stroke-linecap="round" stroke-linejoin="round"/>
</svg>
