<svg width="121" height="30" viewBox="0 0 121 30" fill="none" xmlns="http://www.w3.org/2000/svg">
<mask id="mask0_741_14450" style="mask-type:luminance" maskUnits="userSpaceOnUse" x="-1" y="3" width="24" height="24">
<path d="M-0.00195312 3.75H22.4977V26.2496H-0.00195312V3.75Z" fill="white"/>
</mask>
<g mask="url(#mask0_741_14450)">
<path d="M16.8728 3.75C13.7663 3.75 11.2479 6.26846 11.2479 9.37491V14.9998H11.2489H5.62295C2.51651 14.9998 -0.00195312 17.5183 -0.00195312 20.6247C-0.00195312 23.7312 2.51651 26.2496 5.62295 26.2496H22.4977V9.37491C22.4977 6.26846 19.9792 3.75 16.8728 3.75Z" fill="#3DBDEC"/>
</g>
<mask id="mask1_741_14450" style="mask-type:luminance" maskUnits="userSpaceOnUse" x="11" y="14" width="12" height="13">
<path d="M11.0488 14.7505H22.496V26.2501H11.0488V14.7505Z" fill="white"/>
</mask>
<g mask="url(#mask1_741_14450)">
<path d="M11.2471 15H22.4969V26.2498H11.2471V15Z" fill="#1F2B5B"/>
</g>
<mask id="mask2_741_14450" style="mask-type:luminance" maskUnits="userSpaceOnUse" x="-1" y="3" width="24" height="24">
<path d="M-0.00195312 3.75H22.4977V26.2496H-0.00195312V3.75Z" fill="white"/>
</mask>
<g mask="url(#mask2_741_14450)">
<path d="M22.4977 9.37491V14.9998H11.2479V9.37491C11.2479 6.26846 13.7663 3.75 16.8728 3.75C19.9792 3.75 22.4977 6.26846 22.4977 9.37491ZM-0.00195312 20.6247C-0.00195312 23.7312 2.51651 26.2496 5.62295 26.2496H11.2468V14.9998H5.62295C2.51651 14.9998 -0.00195312 17.5183 -0.00195312 20.6247ZM20.2228 19.4868H18.0107V17.2747H15.7348V19.4868H13.5227V21.7627H15.7348V23.9738H18.0107V21.7627H20.2218V19.4868H20.2228Z" fill="#3DBDEC"/>
</g>
<path d="M28.6719 5.69775C29.856 5.69775 30.7812 5.98558 31.4473 6.56123C32.1134 7.13482 32.4958 7.89139 32.5945 8.83093L32.6068 8.9625H30.7894L30.7647 8.83093C30.5263 7.64673 29.8201 7.05464 28.6472 7.05464C27.9091 7.05464 27.316 7.35069 26.8668 7.94278C26.4196 8.53488 26.1966 9.34387 26.1966 10.3687C26.1966 11.4655 26.4196 12.3095 26.8668 12.9016C27.316 13.4937 27.8999 13.7897 28.6184 13.7897C29.1961 13.7897 29.6607 13.6283 30.0123 13.3045C30.3628 12.9787 30.6003 12.5264 30.7236 11.9477L30.7524 11.8161H32.5534L32.541 11.9477C32.4444 12.9324 32.0404 13.7116 31.3281 14.2873C30.6178 14.8608 29.6885 15.1466 28.5403 15.1466C27.2595 15.1466 26.2295 14.7262 25.4482 13.8843C24.667 13.0404 24.2764 11.9045 24.2764 10.4756C24.2764 9.02007 24.6886 7.86055 25.514 6.99707C26.3384 6.13155 27.391 5.69775 28.6719 5.69775Z" fill="#1F2B5B"/>
<path d="M38.2096 5.69678C39.5963 5.69678 40.691 6.1244 41.4949 6.97965C42.2977 7.8349 42.6996 8.98208 42.6996 10.4212C42.6996 11.8521 42.2977 12.9983 41.4949 13.8586C40.691 14.717 39.5963 15.1456 38.2096 15.1456C36.8249 15.1456 35.7312 14.717 34.9284 13.8586C34.1245 12.9983 33.7236 11.8521 33.7236 10.4212C33.7236 8.98208 34.1225 7.8349 34.9202 6.97965C35.7199 6.1244 36.8167 5.69678 38.2096 5.69678ZM36.3099 12.9006C36.7705 13.4927 37.4037 13.7887 38.2096 13.7887C39.0175 13.7887 39.6497 13.4917 40.1051 12.8965C40.5625 12.2993 40.7918 11.4738 40.7918 10.4212C40.7918 9.36037 40.5625 8.5339 40.1051 7.94181C39.6497 7.34971 39.0175 7.05366 38.2096 7.05366C37.3954 7.05366 36.7592 7.34971 36.3017 7.94181C35.8463 8.5339 35.6192 9.36037 35.6192 10.4212C35.6192 11.482 35.8494 12.3085 36.3099 12.9006Z" fill="#1F2B5B"/>
<path d="M54.0763 5.88135V14.9601H52.2589V10.762C52.2589 9.3229 52.2671 8.28879 52.2835 7.65763C52.0389 8.71025 51.7593 9.74128 51.4447 10.7497L50.166 14.9601H48.1923L46.8889 10.7374C46.5569 9.62203 46.2855 8.59923 46.0748 7.66997C46.0912 8.30318 46.0994 9.33421 46.0994 10.762V14.9601H44.2861V5.88135H47.152L49.2079 13.2908L51.2597 5.88135H54.0763Z" fill="#1F2B5B"/>
<path d="M60.5501 5.94714C61.2759 6.02732 61.8659 6.30692 62.3182 6.78594C62.7705 7.2629 62.9966 7.90434 62.9966 8.71025C62.9966 9.50793 62.7633 10.1473 62.2976 10.6263C61.834 11.1033 61.2512 11.386 60.5501 11.4734C60.1719 11.5176 59.7329 11.5391 59.2344 11.5391H57.9022V14.9601H56.0889V5.88135H59.2344C59.7412 5.88135 60.1801 5.90396 60.5501 5.94714ZM60.0074 10.0671C60.728 9.96023 61.0888 9.50793 61.0888 8.71025C61.0888 7.91256 60.728 7.46027 60.0074 7.35336C59.8069 7.32869 59.5397 7.31636 59.2056 7.31636H57.9022V10.1041H59.2056C59.5397 10.1041 59.8069 10.0918 60.0074 10.0671Z" fill="#1F2B5B"/>
<path d="M70.8342 13.4475V14.9606H64.2842V5.88184H66.0975V13.4475H70.8342Z" fill="#1F2B5B"/>
<path d="M78.7805 13.5256V14.9606H72.2305V5.88184H78.6489V7.30451H74.0438V9.69756H78.32V11.1326H74.0438V13.5256H78.7805Z" fill="#1F2B5B"/>
<path d="M87.4386 7.30451H84.3588V14.9606H82.5414V7.30451H79.4658V5.88184H87.4386V7.30451Z" fill="#1F2B5B"/>
<path d="M95.0803 13.5261V14.9611H88.5303V5.88232H94.9488V7.305H90.3436V9.69805H94.6198V11.1331H90.3436V13.5261H95.0803Z" fill="#1F2B5B"/>
<path d="M73.4234 23.0601V24.8775H73.1973V23.9441C73.1973 23.829 73.1973 23.7128 73.1973 23.5946C73.1993 23.4743 73.2024 23.3643 73.2055 23.2656C73.1747 23.3643 73.1397 23.4743 73.0986 23.5946C73.0595 23.7159 73.0215 23.831 72.9835 23.94L72.6628 24.8775H72.379L72.0501 23.9359C72.0141 23.8269 71.9771 23.7128 71.9391 23.5946C71.9 23.4774 71.8661 23.3705 71.8363 23.2739C71.8383 23.3705 71.8404 23.4784 71.8404 23.5987C71.8404 23.7169 71.8404 23.832 71.8404 23.9441V24.8775H71.6143V23.0601H71.9884L72.523 24.6842L73.0575 23.0601H73.4234Z" fill="#1F2B5B"/>
<path d="M75.065 24.1417C75.065 24.153 75.065 24.1684 75.065 24.1869C75.065 24.2033 75.062 24.2239 75.0568 24.2486H74.0494C74.0546 24.3719 74.0762 24.4696 74.1152 24.5405C74.1533 24.6125 74.2016 24.6639 74.2591 24.6968C74.3167 24.7276 74.3794 24.742 74.4483 24.742C74.5387 24.742 74.6169 24.7153 74.6827 24.6598C74.7505 24.6053 74.7937 24.5282 74.8101 24.4295H75.0445C75.028 24.5426 74.989 24.6341 74.9294 24.705C74.8687 24.7769 74.7957 24.8304 74.7114 24.8653C74.6261 24.8982 74.5346 24.9147 74.4359 24.9147C74.3147 24.9147 74.2067 24.888 74.1111 24.8366C74.0176 24.7821 73.9425 24.7009 73.885 24.594C73.8295 24.485 73.8027 24.3493 73.8027 24.1869C73.8027 24.0368 73.8315 23.9063 73.8891 23.7963C73.9466 23.6842 74.0248 23.5979 74.1235 23.5372C74.2242 23.4776 74.3383 23.4468 74.4647 23.4468C74.5932 23.4468 74.7012 23.4776 74.7896 23.5372C74.88 23.5948 74.9479 23.676 74.9951 23.7798C75.0414 23.8847 75.065 24.005 75.065 24.1417ZM74.4606 23.6195C74.3506 23.6195 74.2571 23.6585 74.181 23.7346C74.107 23.8117 74.0628 23.9258 74.0494 24.0759H74.8348C74.8235 23.9309 74.7865 23.8189 74.7238 23.7387C74.6631 23.6596 74.5757 23.6195 74.4606 23.6195Z" fill="#1F2B5B"/>
<path d="M76.6801 22.9453V24.8778H76.4539V24.6558L76.347 24.8038C76.308 24.8367 76.2545 24.8635 76.1867 24.882C76.1209 24.9035 76.051 24.9149 75.977 24.9149C75.8423 24.9149 75.7272 24.884 75.6316 24.8244C75.538 24.7617 75.4671 24.6764 75.4178 24.5695C75.3684 24.4605 75.3438 24.3382 75.3438 24.2035C75.3438 24.0308 75.3746 23.89 75.4383 23.78C75.501 23.668 75.5843 23.5847 75.6891 23.5292C75.793 23.4747 75.905 23.4469 76.0263 23.4469C76.0839 23.4469 76.1435 23.4552 76.2072 23.4716C76.273 23.486 76.3234 23.5076 76.3594 23.5374L76.4539 23.6772V22.9453H76.6801ZM76.014 24.7422C76.09 24.7422 76.162 24.7247 76.2278 24.6887C76.2956 24.6507 76.3511 24.5921 76.3923 24.5119C76.4334 24.4327 76.4539 24.3269 76.4539 24.1953V24.1172C76.4539 23.9969 76.4313 23.9013 76.3881 23.8293C76.3439 23.7553 76.2895 23.7019 76.2237 23.669C76.1579 23.6361 76.0921 23.6196 76.0263 23.6196C75.903 23.6196 75.7981 23.668 75.7138 23.7636C75.6316 23.8571 75.5905 23.9938 75.5905 24.1747C75.5905 24.2816 75.6048 24.3783 75.6357 24.4626C75.6686 24.5479 75.7159 24.6167 75.7796 24.6681C75.8423 24.7175 75.9204 24.7422 76.014 24.7422Z" fill="#1F2B5B"/>
<path d="M77.2904 23.0234C77.3315 23.0234 77.3654 23.0389 77.3932 23.0687C77.4199 23.0964 77.4343 23.1303 77.4343 23.1715C77.4343 23.2105 77.4199 23.2444 77.3932 23.2743C77.3654 23.302 77.3315 23.3154 77.2904 23.3154C77.2493 23.3154 77.2143 23.302 77.1876 23.2743C77.1598 23.2444 77.1465 23.2105 77.1465 23.1715C77.1465 23.1303 77.1598 23.0964 77.1876 23.0687C77.2143 23.0389 77.2493 23.0234 77.2904 23.0234ZM77.4014 24.8778H77.1753V23.484H77.4014V24.8778Z" fill="#1F2B5B"/>
<path d="M78.4421 23.4468C78.6065 23.4468 78.7391 23.4941 78.8409 23.5866C78.9447 23.677 79.0074 23.7994 79.03 23.9525H78.7916C78.7422 23.7305 78.623 23.6195 78.4338 23.6195C78.3619 23.6195 78.2951 23.639 78.2324 23.677C78.1717 23.7161 78.1224 23.7757 78.0843 23.858C78.0484 23.9381 78.0309 24.0409 78.0309 24.1663C78.0309 24.301 78.0484 24.411 78.0843 24.4953C78.1224 24.5806 78.1707 24.6433 78.2283 24.6844C78.2858 24.7235 78.3485 24.742 78.4174 24.742C78.5099 24.742 78.588 24.7163 78.6518 24.6639C78.7145 24.6125 78.7566 24.5354 78.7792 24.4336H79.0177C78.9848 24.596 78.9129 24.7163 78.8039 24.7954C78.6939 24.8756 78.5613 24.9147 78.4051 24.9147C78.2868 24.9147 78.181 24.89 78.0885 24.8407C77.9949 24.7893 77.9209 24.7091 77.8664 24.6022C77.8109 24.4932 77.7842 24.3534 77.7842 24.1828C77.7842 24.0245 77.814 23.8898 77.8746 23.7798C77.9343 23.6709 78.0144 23.5886 78.1131 23.5331C78.2139 23.4756 78.3238 23.4468 78.4421 23.4468Z" fill="#1F2B5B"/>
<path d="M80.1876 24.8777L80.1629 24.6762L80.0889 24.8283C80.0396 24.8612 79.9841 24.8828 79.9244 24.8941C79.8669 24.9075 79.8031 24.9147 79.7353 24.9147C79.6531 24.9147 79.577 24.8993 79.5091 24.8695C79.4403 24.8396 79.3858 24.7954 79.3447 24.7379C79.3056 24.6783 79.2871 24.6042 79.2871 24.5158C79.2871 24.3596 79.3488 24.2424 79.4721 24.1622C79.5975 24.08 79.798 24.0389 80.0725 24.0389H80.1629V24.0019C80.1629 23.9721 80.1629 23.9433 80.1629 23.9155C80.1629 23.8888 80.1598 23.861 80.1547 23.8333C80.1485 23.7675 80.1259 23.7161 80.0848 23.677C80.0437 23.639 79.9758 23.6195 79.8833 23.6195C79.7898 23.6195 79.7188 23.6462 79.6695 23.6976C79.6222 23.7469 79.5934 23.8199 79.5832 23.9155H79.3488C79.3591 23.7654 79.4125 23.6503 79.5091 23.5701C79.6047 23.4879 79.7291 23.4468 79.8833 23.4468C80.0498 23.4468 80.1711 23.4797 80.2452 23.5455C80.3212 23.6112 80.3665 23.7007 80.3808 23.8127C80.3829 23.8436 80.385 23.8744 80.385 23.9073C80.387 23.9381 80.3891 23.9679 80.3891 23.9978V24.5241C80.3891 24.5765 80.3901 24.6299 80.3932 24.6844C80.3952 24.7368 80.4024 24.8016 80.4137 24.8777H80.1876ZM79.8134 24.742C79.9172 24.742 80.0005 24.7081 80.0642 24.6392C80.13 24.5713 80.1629 24.4737 80.1629 24.3473V24.2075C79.9707 24.1941 79.8175 24.2095 79.7024 24.2527C79.5893 24.2969 79.5338 24.3791 79.5338 24.4994C79.5338 24.5847 79.5585 24.6464 79.6078 24.6844C79.6592 24.7235 79.7281 24.742 79.8134 24.742Z" fill="#1F2B5B"/>
<path d="M81.0982 22.9458V24.4795C81.0982 24.499 81.0982 24.5196 81.0982 24.5412C81.0982 24.5638 81.0982 24.5864 81.0982 24.6111C81.1034 24.6553 81.1188 24.6851 81.1434 24.7015C81.1681 24.718 81.2103 24.7221 81.2709 24.7139V24.8783C81.2462 24.8804 81.2195 24.8835 81.1928 24.8866C81.165 24.8886 81.1373 24.8907 81.1106 24.8907C81.0448 24.8907 80.9893 24.8763 80.9461 24.8454C80.9019 24.8156 80.8772 24.757 80.8721 24.6686C80.8721 24.644 80.8721 24.6183 80.8721 24.5905C80.8721 24.5607 80.8721 24.5268 80.8721 24.4877V22.9458H81.0982Z" fill="#1F2B5B"/>
<path d="M83.5721 24.6924V24.8775H82.3633V23.0601H83.5434V23.2451H82.5894V23.8783H83.4652V24.0633H82.5894V24.6924H83.5721Z" fill="#1F2B5B"/>
<path d="M85.1557 22.9453V24.8778H84.9295V24.6558L84.8226 24.8038C84.7835 24.8367 84.7301 24.8635 84.6622 24.882C84.5965 24.9035 84.5266 24.9149 84.4525 24.9149C84.3179 24.9149 84.2028 24.884 84.1072 24.8244C84.0136 24.7617 83.9427 24.6764 83.8933 24.5695C83.844 24.4605 83.8193 24.3382 83.8193 24.2035C83.8193 24.0308 83.8502 23.89 83.9139 23.78C83.9766 23.668 84.0599 23.5847 84.1647 23.5292C84.2685 23.4747 84.3806 23.4469 84.5019 23.4469C84.5595 23.4469 84.6191 23.4552 84.6828 23.4716C84.7486 23.486 84.799 23.5076 84.8349 23.5374L84.9295 23.6772V22.9453H85.1557ZM84.4896 24.7422C84.5656 24.7422 84.6376 24.7247 84.7034 24.6887C84.7712 24.6507 84.8267 24.5921 84.8678 24.5119C84.909 24.4327 84.9295 24.3269 84.9295 24.1953V24.1172C84.9295 23.9969 84.9069 23.9013 84.8637 23.8293C84.8195 23.7553 84.765 23.7019 84.6993 23.669C84.6335 23.6361 84.5677 23.6196 84.5019 23.6196C84.3785 23.6196 84.2737 23.668 84.1894 23.7636C84.1072 23.8571 84.066 23.9938 84.066 24.1747C84.066 24.2816 84.0804 24.3783 84.1113 24.4626C84.1442 24.5479 84.1915 24.6167 84.2552 24.6681C84.3179 24.7175 84.396 24.7422 84.4896 24.7422Z" fill="#1F2B5B"/>
<path d="M86.81 23.4839V24.8778H86.5838V24.6393L86.4975 24.8038C86.4368 24.848 86.3793 24.8768 86.3248 24.8901C86.2693 24.9066 86.2055 24.9148 86.1315 24.9148C85.9886 24.9148 85.8745 24.8798 85.7902 24.812C85.708 24.7411 85.6587 24.6578 85.6422 24.5612C85.6391 24.5262 85.6361 24.4913 85.634 24.4584C85.6309 24.4234 85.6299 24.3761 85.6299 24.3186V23.4839H85.856V24.2775C85.856 24.3001 85.8571 24.3289 85.8601 24.3638C85.8622 24.3998 85.8653 24.4358 85.8684 24.4707C85.8786 24.5509 85.9115 24.6146 85.967 24.664C86.0215 24.7113 86.0966 24.7339 86.1932 24.7339C86.2641 24.7339 86.3289 24.7154 86.3864 24.6763C86.4461 24.6352 86.4944 24.5684 86.5304 24.4748C86.5653 24.3823 86.5838 24.2559 86.5838 24.0965V23.4839H86.81Z" fill="#1F2B5B"/>
<path d="M87.8464 23.4463C88.0108 23.4463 88.1434 23.4936 88.2452 23.5861C88.349 23.6765 88.4117 23.7989 88.4343 23.952H88.1959C88.1465 23.73 88.0273 23.619 87.8381 23.619C87.7662 23.619 87.6994 23.6385 87.6367 23.6765C87.576 23.7156 87.5267 23.7752 87.4886 23.8575C87.4527 23.9376 87.4352 24.0404 87.4352 24.1658C87.4352 24.3005 87.4527 24.4105 87.4886 24.4948C87.5267 24.5801 87.575 24.6428 87.6325 24.6839C87.6901 24.723 87.7528 24.7415 87.8217 24.7415C87.9142 24.7415 87.9923 24.7158 88.0561 24.6634C88.1188 24.612 88.1609 24.5349 88.1835 24.4331H88.422C88.3891 24.5955 88.3172 24.7158 88.2082 24.795C88.0982 24.8751 87.9656 24.9142 87.8094 24.9142C87.6911 24.9142 87.5853 24.8895 87.4927 24.8402C87.3992 24.7888 87.3252 24.7086 87.2707 24.6017C87.2152 24.4927 87.1885 24.3529 87.1885 24.1823C87.1885 24.024 87.2183 23.8893 87.2789 23.7793C87.3386 23.6704 87.4187 23.5881 87.5174 23.5326C87.6182 23.4751 87.7281 23.4463 87.8464 23.4463Z" fill="#1F2B5B"/>
<path d="M89.5958 24.8782L89.5711 24.6767L89.4971 24.8288C89.4478 24.8617 89.3923 24.8833 89.3326 24.8946C89.2751 24.908 89.2113 24.9152 89.1435 24.9152C89.0613 24.9152 88.9852 24.8997 88.9173 24.8699C88.8485 24.8401 88.794 24.7959 88.7529 24.7384C88.7138 24.6787 88.6953 24.6047 88.6953 24.5163C88.6953 24.3601 88.757 24.2429 88.8803 24.1627C89.0058 24.0805 89.2062 24.0394 89.4807 24.0394H89.5711V24.0024C89.5711 23.9725 89.5711 23.9438 89.5711 23.916C89.5711 23.8893 89.568 23.8615 89.5629 23.8338C89.5567 23.768 89.5341 23.7166 89.493 23.6775C89.4519 23.6395 89.384 23.62 89.2915 23.62C89.198 23.62 89.127 23.6467 89.0777 23.6981C89.0304 23.7474 89.0016 23.8204 88.9914 23.916H88.757C88.7673 23.7659 88.8207 23.6508 88.9173 23.5706C89.0129 23.4884 89.1373 23.4473 89.2915 23.4473C89.458 23.4473 89.5793 23.4802 89.6534 23.5459C89.7294 23.6117 89.7747 23.7012 89.789 23.8132C89.7911 23.8441 89.7932 23.8749 89.7932 23.9078C89.7952 23.9386 89.7973 23.9684 89.7973 23.9982V24.5246C89.7973 24.577 89.7983 24.6304 89.8014 24.6849C89.8034 24.7373 89.8106 24.8021 89.8219 24.8782H89.5958ZM89.2216 24.7425C89.3254 24.7425 89.4087 24.7086 89.4724 24.6397C89.5382 24.5718 89.5711 24.4742 89.5711 24.3477V24.2079C89.3789 24.1946 89.2257 24.21 89.1106 24.2532C88.9975 24.2974 88.942 24.3796 88.942 24.4999C88.942 24.5852 88.9667 24.6469 89.016 24.6849C89.0674 24.724 89.1363 24.7425 89.2216 24.7425Z" fill="#1F2B5B"/>
<path d="M90.5596 23.6694V24.4712C90.5596 24.4938 90.5596 24.5123 90.5596 24.5288C90.5596 24.5432 90.5606 24.5596 90.5637 24.5781C90.5689 24.6439 90.5884 24.6871 90.6213 24.7056C90.6562 24.7251 90.7179 24.7302 90.8063 24.722V24.8865C90.7734 24.8916 90.7405 24.8947 90.7076 24.8947C90.6768 24.8968 90.646 24.8988 90.6131 24.8988C90.5277 24.8988 90.462 24.8793 90.4157 24.8413C90.3684 24.8032 90.3427 24.7415 90.3376 24.6562C90.3345 24.6377 90.3335 24.6131 90.3335 24.5822C90.3335 24.5524 90.3335 24.5185 90.3335 24.4794V23.6694H90.1484V23.4926H90.3335V23.1719H90.5596V23.4926H90.8228V23.6694H90.5596Z" fill="#1F2B5B"/>
<path d="M91.3256 23.0239C91.3667 23.0239 91.4006 23.0393 91.4283 23.0692C91.4551 23.0969 91.4695 23.1308 91.4695 23.1719C91.4695 23.211 91.4551 23.2449 91.4283 23.2747C91.4006 23.3025 91.3667 23.3159 91.3256 23.3159C91.2844 23.3159 91.2495 23.3025 91.2228 23.2747C91.195 23.2449 91.1816 23.211 91.1816 23.1719C91.1816 23.1308 91.195 23.0969 91.2228 23.0692C91.2495 23.0393 91.2844 23.0239 91.3256 23.0239ZM91.4366 24.8783H91.2104V23.4844H91.4366V24.8783Z" fill="#1F2B5B"/>
<path d="M92.5132 23.4463C92.6695 23.4463 92.798 23.4812 92.8998 23.5491C93.0036 23.6149 93.0807 23.7043 93.13 23.8163C93.1794 23.9263 93.204 24.0466 93.204 24.1782C93.204 24.3098 93.1794 24.4321 93.13 24.5441C93.0807 24.6572 93.0036 24.7477 92.8998 24.8155C92.798 24.8813 92.6695 24.9142 92.5132 24.9142C92.3539 24.9142 92.2234 24.8813 92.1226 24.8155C92.0209 24.7477 91.9438 24.6572 91.8924 24.5441C91.843 24.4321 91.8184 24.3098 91.8184 24.1782C91.8184 24.0466 91.843 23.9263 91.8924 23.8163C91.9438 23.7043 92.0209 23.6149 92.1226 23.5491C92.2234 23.4812 92.3539 23.4463 92.5132 23.4463ZM92.5132 24.7415C92.6058 24.7415 92.6859 24.7189 92.7517 24.6716C92.8175 24.6223 92.8679 24.5554 92.9039 24.4701C92.9388 24.3858 92.9573 24.2882 92.9573 24.1782C92.9573 24.0137 92.9172 23.8801 92.8381 23.7752C92.761 23.6714 92.653 23.619 92.5132 23.619C92.3704 23.619 92.2593 23.6714 92.1802 23.7752C92.1031 23.8801 92.0651 24.0137 92.0651 24.1782C92.0651 24.2882 92.0825 24.3858 92.1185 24.4701C92.1535 24.5554 92.2049 24.6223 92.2707 24.6716C92.3364 24.7189 92.4166 24.7415 92.5132 24.7415Z" fill="#1F2B5B"/>
<path d="M94.7482 23.8538C94.7503 23.8898 94.7523 23.9258 94.7523 23.9607C94.7523 23.9936 94.7523 24.0378 94.7523 24.0923V24.8777H94.5262V24.1088C94.5262 24.0738 94.5262 24.0409 94.5262 24.0101C94.5262 23.9772 94.5241 23.9433 94.5221 23.9073C94.5139 23.8251 94.4851 23.7582 94.4357 23.7058C94.3885 23.6513 94.3103 23.6236 94.2014 23.6236C94.1294 23.6236 94.0626 23.6441 93.9999 23.6853C93.9392 23.7264 93.8899 23.7942 93.8519 23.8867C93.8159 23.9803 93.7984 24.1067 93.7984 24.265V24.8777H93.5723V23.4838H93.7984V23.7223L93.8889 23.5619C93.9464 23.5156 94.0019 23.4858 94.0575 23.4714C94.115 23.455 94.1788 23.4468 94.2507 23.4468C94.4039 23.4468 94.5221 23.4838 94.6043 23.5578C94.6886 23.6318 94.7369 23.7305 94.7482 23.8538Z" fill="#1F2B5B"/>
<path d="M28.8107 17.6813C29.7174 17.7882 30.4472 18.1366 30.9982 18.7256C31.5512 19.3126 31.8288 20.1401 31.8288 21.2092C31.8288 22.2864 31.5451 23.1499 30.9777 23.7996C30.4123 24.4472 29.6835 24.8234 28.7902 24.9303C28.5435 24.9581 28.232 24.9714 27.8568 24.9714H25.3486V17.6401H27.8774C28.2526 17.6401 28.564 17.6545 28.8107 17.6813ZM28.4612 23.7831C29.0204 23.7122 29.4625 23.4532 29.7893 23.006C30.1152 22.5599 30.2787 21.9678 30.2787 21.2297C30.2787 20.5225 30.1183 19.9633 29.7976 19.5521C29.4789 19.1409 29.0451 18.9004 28.4941 18.8284C28.2742 18.8017 28.0131 18.7873 27.7088 18.7873H26.8165V23.8119H27.6841C28.046 23.8119 28.305 23.8027 28.4612 23.7831Z" fill="#3DBDEC"/>
<path d="M36.3324 17.4927C37.4508 17.4927 38.3328 17.8381 38.9804 18.5288C39.6301 19.2196 39.9549 20.1468 39.9549 21.3084C39.9549 22.4628 39.6301 23.3869 38.9804 24.0797C38.3328 24.7736 37.4508 25.12 36.3324 25.12C35.214 25.12 34.33 24.7736 33.6803 24.0797C33.0327 23.3869 32.71 22.4628 32.71 21.3084C32.71 20.1468 33.0317 19.2196 33.6762 18.5288C34.3197 17.8381 35.2058 17.4927 36.3324 17.4927ZM34.7946 23.3108C35.1667 23.7878 35.6797 24.0263 36.3324 24.0263C36.9842 24.0263 37.494 23.7868 37.862 23.3067C38.229 22.8246 38.413 22.1585 38.413 21.3084C38.413 20.4511 38.229 19.7829 37.862 19.306C37.494 18.8269 36.9842 18.5864 36.3324 18.5864C35.6746 18.5864 35.1606 18.8269 34.7905 19.306C34.4225 19.7829 34.2395 20.4511 34.2395 21.3084C34.2395 22.1637 34.4246 22.8318 34.7946 23.3108Z" fill="#3DBDEC"/>
<path d="M44.3854 17.4907C45.3414 17.4907 46.0887 17.723 46.6263 18.1856C47.1629 18.6492 47.4713 19.2608 47.5514 20.0195L47.5597 20.1264H46.0959L46.0753 20.0195C45.8831 19.0635 45.3126 18.5845 44.3648 18.5845C43.7696 18.5845 43.2916 18.825 42.9298 19.304C42.568 19.781 42.3871 20.4337 42.3871 21.2612C42.3871 22.1473 42.568 22.8299 42.9298 23.3089C43.2916 23.7858 43.7624 24.0243 44.3443 24.0243C44.8099 24.0243 45.1841 23.8948 45.4668 23.6337C45.7515 23.3706 45.9437 23.0046 46.0424 22.5359L46.063 22.429H47.5185L47.5103 22.5359C47.4301 23.3315 47.1043 23.9606 46.5317 24.4232C45.9581 24.8868 45.2077 25.1181 44.2785 25.1181C43.2444 25.1181 42.4128 24.7788 41.7826 24.0983C41.1515 23.4189 40.8369 22.5019 40.8369 21.3476C40.8369 20.1716 41.17 19.2362 41.8361 18.5392C42.5022 17.8402 43.3513 17.4907 44.3854 17.4907Z" fill="#3DBDEC"/>
<path d="M54.6051 18.7863H52.1215V24.9705H50.6536V18.7863H48.166V17.6392H54.6051V18.7863Z" fill="#3DBDEC"/>
<path d="M58.7074 17.4927C59.8258 17.4927 60.7078 17.8381 61.3554 18.5288C62.0051 19.2196 62.3299 20.1468 62.3299 21.3084C62.3299 22.4628 62.0051 23.3869 61.3554 24.0797C60.7078 24.7736 59.8258 25.12 58.7074 25.12C57.589 25.12 56.705 24.7736 56.0553 24.0797C55.4077 23.3869 55.085 22.4628 55.085 21.3084C55.085 20.1468 55.4067 19.2196 56.0512 18.5288C56.6947 17.8381 57.5808 17.4927 58.7074 17.4927ZM57.1696 23.3108C57.5417 23.7878 58.0547 24.0263 58.7074 24.0263C59.3592 24.0263 59.869 23.7868 60.237 23.3067C60.604 22.8246 60.788 22.1585 60.788 21.3084C60.788 20.4511 60.604 19.7829 60.237 19.306C59.869 18.8269 59.3592 18.5864 58.7074 18.5864C58.0496 18.5864 57.5356 18.8269 57.1655 19.306C56.7975 19.7829 56.6145 20.4511 56.6145 21.3084C56.6145 22.1637 56.7996 22.8318 57.1696 23.3108Z" fill="#3DBDEC"/>
<path d="M68.9257 23.1211C69.0182 23.9928 69.195 24.6096 69.4561 24.9714H67.8525C67.6737 24.4842 67.5534 23.9383 67.4907 23.3349C67.392 22.5074 67.0631 22.0716 66.5039 22.0274C66.3692 22.0223 66.177 22.0192 65.9282 22.0192H65.0812V24.9714H63.6133V17.6401H66.29C66.693 17.6401 67.0476 17.6586 67.355 17.6936C67.9327 17.7655 68.3973 17.9588 68.7489 18.2733C69.0994 18.5889 69.2752 19.0443 69.2752 19.6385C69.2752 20.099 69.1477 20.4803 68.8928 20.7815C68.6379 21.0807 68.2863 21.2945 67.8402 21.423C68.4703 21.6645 68.8322 22.2309 68.9257 23.1211ZM65.0812 20.9213H66.0886C66.3784 20.9213 66.5779 20.9193 66.6848 20.9131C67.3858 20.8504 67.7374 20.4999 67.7374 19.8605C67.7374 19.5295 67.6531 19.2838 67.4866 19.1245C67.319 18.9631 67.0795 18.8613 66.767 18.8202C66.5964 18.7986 66.3928 18.7873 66.1544 18.7873H65.0812V20.9213Z" fill="#3DBDEC"/>
</svg>
